# xmcd
#
# Track frame offsets:
#	150
#	15052
#	28657
#	41745
#	59550
#	73100
#	87077
#	101385
#	115547
#	133185
#	147825
#	169577
#	184557
#	199170
#	214132
#	229740
#	247447
#
# Disc length: 3528 seconds
#
# Revision: 0
# Processed by: cddbd v1.5.2PL0 Copyright (c) Steve Scherf et al.
# Submitted via: dBpowerAMP V4.0
#
DISCID=ec0dc611
DTITLE=Varios - The best of new country line dance
DYEAR=1900
DGENRE=
TTITLE0=ACHY BREAKY HEART
TTITLE1=THERE GOES MY HEART
TTITLE2=ONE STEP AWAY
TTITLE3=ELVIRA
TTITLE4=ONE MORE LAST CHANCE
TTITLE5=SIX DAYS ON THE ROAD
TTITLE6=PASSIONATE KISSES
TTITLE7=WATERMELON CRAWL
TTITLE8=HE THINKS HE´LL KEEP HER
TTITLE9=TEMPTED
TTITLE10=THE HARD WAY
TTITLE11=I COULDN´T LEAVE IF I TRIED
TTITLE12=SMOKY PLACES
TTITLE13=COTTON EYE JOE
TTITLE14=FLY LIKE A BIRD
TTITLE15=CRYING SHAME
TTITLE16=SAVE THE LAST DANCE FOR ME
EXTD=Line up and Dance Volume one
EXTT0=
EXTT1=
EXTT2=
EXTT3=
EXTT4=
EXTT5=
EXTT6=
EXTT7=
EXTT8=
EXTT9=
EXTT10=
EXTT11=
EXTT12=
EXTT13=
EXTT14=
EXTT15=
EXTT16=
PLAYORDER=
